<?xml version="1.0" encoding="UTF-8"?>
<svg width="79px" height="70px" viewBox="0 0 79 70" version="1.1" xmlns="http://www.w3.org/2000/svg" xmlns:xlink="http://www.w3.org/1999/xlink">
    <!-- Generator: Sketch 44.1 (41455) - http://www.bohemiancoding.com/sketch -->
    <title>Page 1 Copy 5</title>
    <desc>Created with Sketch.</desc>
    <defs>
        <polygon id="path-1" points="0.153985649 0.0914211503 34.1608839 0.0914211503 34.1608839 34.2101904 0.153985649 34.2101904"></polygon>
    </defs>
    <g id="DESK---N-Card-Surpreendido-Final" stroke="none" stroke-width="1" fill="none" fill-rule="evenodd">
        <g id="NS-ar---Ahora-3y6" transform="translate(-622.000000, -89.000000)">
            <g id="Page-1-Copy-5" transform="translate(622.000000, 89.000000)">
                <path d="M54.8410453,17.2400314 C54.8410453,25.6799312 47.9970793,32.5474952 39.5813258,32.5474952 C31.1671869,32.5474952 24.3230414,25.6799312 24.3230414,17.2400314 C24.3230414,8.7988718 31.1671869,1.93148776 39.5813258,1.93148776 C47.9970793,1.93148776 54.8410453,8.7988718 54.8410453,17.2400314" id="Fill-1" fill="#FEFEFE"></path>
                <g id="Group-5" transform="translate(22.423353, 0.088542)">
                    <mask id="mask-2" fill="white">
                        <use xlink:href="#path-1"></use>
                    </mask>
                    <g id="Clip-4"></g>
                    <path d="M17.1580626,31.0935929 C9.49411937,31.0935929 3.26078604,24.8386226 3.26078604,17.1515076 C3.26078604,9.46313284 9.49411937,3.20816252 17.1580626,3.20816252 C24.8230822,3.20816252 31.0567743,9.46313284 31.0567743,17.1515076 C31.0567743,24.8386226 24.8230822,31.0935929 17.1580626,31.0935929 M17.1580626,0.0913851577 C7.78205153,0.0913851577 0.153985649,7.74394731 0.153985649,17.1515076 C0.153985649,26.5576282 7.78205153,34.2101904 17.1580626,34.2101904 C26.5340737,34.2101904 34.1608839,26.5576282 34.1608839,17.1515076 C34.1608839,7.74394731 26.5340737,0.0913851577 17.1580626,0.0913851577" id="Fill-3" fill="#1D8DCD" mask="url(#mask-2)"></path>
                </g>
                <path d="M78.1382094,59.1416738 L0.598255055,59.1416738 C0.419765166,59.1416738 0.27553816,58.9962638 0.27553816,58.8179206 C0.27553816,58.6388575 0.419765166,58.4939874 0.598255055,58.4939874 L78.1382094,58.4939874 C78.3161611,58.4939874 78.4603881,58.6388575 78.4603881,58.8179206 C78.4603881,58.9962638 78.3161611,59.1416738 78.1382094,59.1416738" id="Fill-6" fill="#1D8DCD"></path>
                <path d="M6.74083659,50.4565386 L5.50629648,47.5074866 L4.27085943,50.4565386 L6.74083659,50.4565386 Z M1.22827952,52.9340878 L4.33472114,45.8977186 C4.55142042,45.4127186 4.94607143,45.1191991 5.48082355,45.1191991 L5.59473418,45.1191991 C6.13020385,45.1191991 6.51193901,45.4127186 6.72792074,45.8977186 L9.83472114,52.9340878 C9.89840346,53.0740989 9.93643346,53.2027724 9.93643346,53.330726 C9.93643346,53.8535182 9.52868721,54.2758911 9.00649217,54.2758911 C8.54905577,54.2758911 8.24356001,54.0084662 8.06453196,53.5986907 L7.46681507,52.1935404 L3.54577789,52.1935404 L2.92169113,53.6623976 C2.7559377,54.0462584 2.42461024,54.2758911 2.01722277,54.2758911 C1.50812296,54.2758911 1.1141895,53.8670154 1.1141895,53.3564607 C1.1141895,53.2157297 1.1645972,53.0740989 1.22827952,52.9340878 L1.22827952,52.9340878 Z" id="Fill-8" fill="#198CCD"></path>
                <path d="M6.74083659,50.4565386 L5.50629648,47.5074866 L4.27085943,50.4565386 L6.74083659,50.4565386 Z M1.22827952,52.9340878 L4.33472114,45.8977186 C4.55142042,45.4127186 4.94607143,45.1191991 5.48082355,45.1191991 L5.59473418,45.1191991 C6.13020385,45.1191991 6.51193901,45.4127186 6.72792074,45.8977186 L9.83472114,52.9340878 C9.89840346,53.0740989 9.93643346,53.2027724 9.93643346,53.330726 C9.93643346,53.8535182 9.52868721,54.2758911 9.00649217,54.2758911 C8.54905577,54.2758911 8.24356001,54.0084662 8.06453196,53.5986907 L7.46681507,52.1935404 L3.54577789,52.1935404 L2.92169113,53.6623976 C2.7559377,54.0462584 2.42461024,54.2758911 2.01722277,54.2758911 C1.50812296,54.2758911 1.1141895,53.8670154 1.1141895,53.3564607 C1.1141895,53.2157297 1.1645972,53.0740989 1.22827952,52.9340878 Z" id="Stroke-10" stroke="#198CCD" stroke-width="0.5"></path>
                <path d="M11.4791781,46.1657193 C11.4791781,45.6157527 11.9116797,45.1818622 12.4586301,45.1818622 C13.0068363,45.1818622 13.4396967,45.6157527 13.4396967,46.1657193 L13.4396967,48.795877 L17.0552381,48.795877 L17.0552381,46.1657193 C17.0552381,45.6157527 17.4880985,45.1818622 18.0348695,45.1818622 C18.5823581,45.1818622 19.0152185,45.6157527 19.0152185,46.1657193 L19.0152185,53.2929698 C19.0152185,53.8423965 18.5823581,54.2757471 18.0348695,54.2757471 C17.4880985,54.2757471 17.0552381,53.8423965 17.0552381,53.2929698 L17.0552381,50.609903 L13.4396967,50.609903 L13.4396967,53.2929698 C13.4396967,53.8423965 13.0068363,54.2757471 12.4586301,54.2757471 C11.9116797,54.2757471 11.4791781,53.8423965 11.4791781,53.2929698 L11.4791781,46.1657193 Z" id="Fill-12" fill="#198CCD"></path>
                <path d="M11.4791781,46.1657193 C11.4791781,45.6157527 11.9116797,45.1818622 12.4586301,45.1818622 C13.0068363,45.1818622 13.4396967,45.6157527 13.4396967,46.1657193 L13.4396967,48.795877 L17.0552381,48.795877 L17.0552381,46.1657193 C17.0552381,45.6157527 17.4880985,45.1818622 18.0348695,45.1818622 C18.5823581,45.1818622 19.0152185,45.6157527 19.0152185,46.1657193 L19.0152185,53.2929698 C19.0152185,53.8423965 18.5823581,54.2757471 18.0348695,54.2757471 C17.4880985,54.2757471 17.0552381,53.8423965 17.0552381,53.2929698 L17.0552381,50.609903 L13.4396967,50.609903 L13.4396967,53.2929698 C13.4396967,53.8423965 13.0068363,54.2757471 12.4586301,54.2757471 C11.9116797,54.2757471 11.4791781,53.8423965 11.4791781,53.2929698 L11.4791781,46.1657193 Z" id="Stroke-14" stroke="#198CCD" stroke-width="0.5"></path>
                <path d="M28.1837867,49.7551332 L28.1837867,49.7293985 C28.1837867,48.1970145 27.0638748,46.919098 25.4852707,46.919098 C23.9064873,46.919098 22.8115101,48.1705599 22.8115101,49.7038438 L22.8115101,49.7293985 C22.8115101,51.2621425 23.9319602,52.5391592 25.5100261,52.5391592 C27.0895271,52.5391592 28.1837867,51.2869774 28.1837867,49.7551332 M20.7618363,49.7551332 L20.7618363,49.7293985 C20.7618363,47.1872427 22.7603849,45.1066917 25.5100261,45.1066917 C28.2603849,45.1066917 30.2341781,47.161508 30.2341781,49.7038438 L30.2341781,49.7293985 C30.2341781,52.2706545 28.2347326,54.3524653 25.4852707,54.3524653 C22.7350913,54.3524653 20.7618363,52.2962093 20.7618363,49.7551332" id="Fill-16" fill="#198CCD"></path>
                <path d="M28.1837867,49.7551332 L28.1837867,49.7293985 C28.1837867,48.1970145 27.0638748,46.919098 25.4852707,46.919098 C23.9064873,46.919098 22.8115101,48.1705599 22.8115101,49.7038438 L22.8115101,49.7293985 C22.8115101,51.2621425 23.9319602,52.5391592 25.5100261,52.5391592 C27.0895271,52.5391592 28.1837867,51.2869774 28.1837867,49.7551332 Z M20.7618363,49.7551332 L20.7618363,49.7293985 C20.7618363,47.1872427 22.7603849,45.1066917 25.5100261,45.1066917 C28.2603849,45.1066917 30.2341781,47.161508 30.2341781,49.7038438 L30.2341781,49.7293985 C30.2341781,52.2706545 28.2347326,54.3524653 25.4852707,54.3524653 C22.7350913,54.3524653 20.7618363,52.2962093 20.7618363,49.7551332 Z" id="Stroke-18" stroke="#198CCD" stroke-width="0.5"></path>
                <path d="M35.9266781,49.6015349 C36.8820923,49.6015349 37.4288633,49.0900803 37.4288633,48.3371156 L37.4288633,48.3112009 C37.4288633,47.4680748 36.8438829,47.0343642 35.8882893,47.0343642 L33.9405072,47.0343642 L33.9405072,49.6015349 L35.9266781,49.6015349 Z M31.980168,46.2425275 C31.980168,45.6931007 32.412849,45.2583104 32.9603376,45.2583104 L36.0540427,45.2583104 C37.1872293,45.2583104 38.0656866,45.5781045 38.6512052,46.1653234 C39.1479273,46.6643605 39.4150342,47.3662158 39.4150342,48.209162 L39.4150342,48.2339968 C39.4150342,49.6402269 38.7152462,50.5076481 37.6328262,50.9552158 L38.9949103,52.6150135 C39.1855985,52.8581434 39.3129631,53.0627612 39.3129631,53.369238 C39.3129631,53.9190247 38.8553474,54.2758911 38.38356,54.2758911 C37.9381425,54.2758911 37.6455626,54.0592158 37.4161269,53.7640766 L35.5072717,51.3381768 L33.9405072,51.3381768 L33.9405072,53.2929338 C33.9405072,53.8423605 33.5078262,54.2758911 32.9603376,54.2758911 C32.412849,54.2758911 31.980168,53.8423605 31.980168,53.2929338 L31.980168,46.2425275 Z" id="Fill-20" fill="#198CCD"></path>
                <path d="M35.9266781,49.6015349 C36.8820923,49.6015349 37.4288633,49.0900803 37.4288633,48.3371156 L37.4288633,48.3112009 C37.4288633,47.4680748 36.8438829,47.0343642 35.8882893,47.0343642 L33.9405072,47.0343642 L33.9405072,49.6015349 L35.9266781,49.6015349 Z M31.980168,46.2425275 C31.980168,45.6931007 32.412849,45.2583104 32.9603376,45.2583104 L36.0540427,45.2583104 C37.1872293,45.2583104 38.0656866,45.5781045 38.6512052,46.1653234 C39.1479273,46.6643605 39.4150342,47.3662158 39.4150342,48.209162 L39.4150342,48.2339968 C39.4150342,49.6402269 38.7152462,50.5076481 37.6328262,50.9552158 L38.9949103,52.6150135 C39.1855985,52.8581434 39.3129631,53.0627612 39.3129631,53.369238 C39.3129631,53.9190247 38.8553474,54.2758911 38.38356,54.2758911 C37.9381425,54.2758911 37.6455626,54.0592158 37.4161269,53.7640766 L35.5072717,51.3381768 L33.9405072,51.3381768 L33.9405072,53.2929338 C33.9405072,53.8423605 33.5078262,54.2758911 32.9603376,54.2758911 C32.412849,54.2758911 31.980168,53.8423605 31.980168,53.2929338 L31.980168,46.2425275 Z" id="Stroke-22" stroke="#198CCD" stroke-width="0.5"></path>
                <path d="M46.2030496,50.4565386 L44.9677919,47.5074866 L43.7325342,50.4565386 L46.2030496,50.4565386 Z M40.6904925,52.9340878 L43.7962166,45.8977186 C44.0130952,45.4127186 44.4068493,45.1191991 44.9428571,45.1191991 L45.0569472,45.1191991 C45.5916993,45.1191991 45.9734344,45.4127186 46.1895956,45.8977186 L49.2967547,52.9340878 C49.3606164,53.0740989 49.3981083,53.2027724 49.3981083,53.330726 C49.3981083,53.8535182 48.9909002,54.2758911 48.4687052,54.2758911 C48.0110894,54.2758911 47.7052348,54.0084662 47.5267449,53.5986907 L46.929028,52.1935404 L43.0079909,52.1935404 L42.3844423,53.6623976 C42.2181507,54.0462584 41.8866438,54.2758911 41.4794357,54.2758911 C40.9701566,54.2758911 40.5756849,53.8670154 40.5756849,53.3564607 C40.5756849,53.2157297 40.6266308,53.0740989 40.6904925,52.9340878 L40.6904925,52.9340878 Z" id="Fill-24" fill="#198CCD"></path>
                <path d="M46.2030496,50.4565386 L44.9677919,47.5074866 L43.7325342,50.4565386 L46.2030496,50.4565386 Z M40.6904925,52.9340878 L43.7962166,45.8977186 C44.0130952,45.4127186 44.4068493,45.1191991 44.9428571,45.1191991 L45.0569472,45.1191991 C45.5916993,45.1191991 45.9734344,45.4127186 46.1895956,45.8977186 L49.2967547,52.9340878 C49.3606164,53.0740989 49.3981083,53.2027724 49.3981083,53.330726 C49.3981083,53.8535182 48.9909002,54.2758911 48.4687052,54.2758911 C48.0110894,54.2758911 47.7052348,54.0084662 47.5267449,53.5986907 L46.929028,52.1935404 L43.0079909,52.1935404 L42.3844423,53.6623976 C42.2181507,54.0462584 41.8866438,54.2758911 41.4794357,54.2758911 C40.9701566,54.2758911 40.5756849,53.8670154 40.5756849,53.3564607 C40.5756849,53.2157297 40.6266308,53.0740989 40.6904925,52.9340878 Z" id="Stroke-26" stroke="#198CCD" stroke-width="0.5"></path>
                <path d="M54.697213,53.330672 C54.5180055,53.1766237 54.3664237,52.9093788 54.3664237,52.6280968 C54.3664237,52.1177221 54.7985665,51.6834716 55.3083839,51.6834716 C55.5882273,51.6834716 55.7787361,51.7972082 55.9322913,51.9258816 C56.4410323,52.3601321 56.9757844,52.5901247 57.6755724,52.5901247 C58.4142873,52.5901247 58.9361236,52.1673918 58.9361236,51.5040486 L58.9361236,51.4783139 C58.9361236,50.7512638 58.2867433,50.3422082 57.1924837,50.3422082 L56.8866292,50.3422082 C56.4282958,50.3422082 56.0463813,49.9590672 56.0463813,49.5001618 C56.0463813,49.2309373 56.1611888,49.0009447 56.4665052,48.6944679 L58.1975881,46.9448686 L55.4606833,46.9448686 C55.0025294,46.9448686 54.6215117,46.5613677 54.6215117,46.1019224 C54.6215117,45.6417573 55.0025294,45.2584364 55.4606833,45.2584364 L59.8023826,45.2584364 C60.3748059,45.2584364 60.7947505,45.5908278 60.7947505,46.128197 C60.7947505,46.613197 60.5660323,46.8809818 60.2090525,47.2254308 L58.4652332,48.8989058 C59.6748386,49.1029837 60.8593297,49.7411321 60.8593297,51.4030894 L60.8593297,51.4277443 C60.8593297,53.1139967 59.636091,54.3525013 57.6506376,54.3525013 C56.3778881,54.3525013 55.4224739,53.9565829 54.697213,53.330672" id="Fill-28" fill="#2BB3A7"></path>
                <path d="M54.697213,53.330672 C54.5180055,53.1766237 54.3664237,52.9093788 54.3664237,52.6280968 C54.3664237,52.1177221 54.7985665,51.6834716 55.3083839,51.6834716 C55.5882273,51.6834716 55.7787361,51.7972082 55.9322913,51.9258816 C56.4410323,52.3601321 56.9757844,52.5901247 57.6755724,52.5901247 C58.4142873,52.5901247 58.9361236,52.1673918 58.9361236,51.5040486 L58.9361236,51.4783139 C58.9361236,50.7512638 58.2867433,50.3422082 57.1924837,50.3422082 L56.8866292,50.3422082 C56.4282958,50.3422082 56.0463813,49.9590672 56.0463813,49.5001618 C56.0463813,49.2309373 56.1611888,49.0009447 56.4665052,48.6944679 L58.1975881,46.9448686 L55.4606833,46.9448686 C55.0025294,46.9448686 54.6215117,46.5613677 54.6215117,46.1019224 C54.6215117,45.6417573 55.0025294,45.2584364 55.4606833,45.2584364 L59.8023826,45.2584364 C60.3748059,45.2584364 60.7947505,45.5908278 60.7947505,46.128197 C60.7947505,46.613197 60.5660323,46.8809818 60.2090525,47.2254308 L58.4652332,48.8989058 C59.6748386,49.1029837 60.8593297,49.7411321 60.8593297,51.4030894 L60.8593297,51.4277443 C60.8593297,53.1139967 59.636091,54.3525013 57.6506376,54.3525013 C56.3778881,54.3525013 55.4224739,53.9565829 54.697213,53.330672 Z" id="Stroke-30" stroke="#2BB3A7" stroke-width="0.5"></path>
                <path d="M63.4572097,56.1023525 C63.1780838,56.0001336 62.8472945,55.7694212 62.8472945,55.2973785 C62.8472945,54.8256957 63.2162932,54.5064416 63.6107648,54.5064416 C63.7623467,54.5064416 63.8523989,54.5314564 63.9288177,54.5564712 C64.0940329,54.6081206 64.1959247,54.6329555 64.3362052,54.6329555 C64.6802691,54.6329555 64.8447668,54.5692486 65.0237948,54.2253395 L65.086939,54.0718312 L62.7581393,48.6567477 C62.7062965,48.5295139 62.65553,48.3371336 62.65553,48.20918 C62.65553,47.6606531 63.0760127,47.2767922 63.6107648,47.2767922 C64.0940329,47.2767922 64.3744145,47.544757 64.5394504,48.0045622 L66.0168803,51.9903803 L67.4426468,48.0176994 C67.5949462,47.6086438 67.8753278,47.2767922 68.3718705,47.2767922 C68.8684132,47.2767922 69.2885372,47.6606531 69.2885372,48.1706679 C69.2885372,48.3241763 69.2374119,48.5421113 69.1999201,48.6302931 L66.81856,54.3653506 C66.2457779,55.7579035 65.6733545,56.2808757 64.514695,56.2808757 C64.0811171,56.2808757 63.7758007,56.2177087 63.4572097,56.1023525" id="Fill-32" fill="#198CCD"></path>
                <path d="M63.4572097,56.1023525 C63.1780838,56.0001336 62.8472945,55.7694212 62.8472945,55.2973785 C62.8472945,54.8256957 63.2162932,54.5064416 63.6107648,54.5064416 C63.7623467,54.5064416 63.8523989,54.5314564 63.9288177,54.5564712 C64.0940329,54.6081206 64.1959247,54.6329555 64.3362052,54.6329555 C64.6802691,54.6329555 64.8447668,54.5692486 65.0237948,54.2253395 L65.086939,54.0718312 L62.7581393,48.6567477 C62.7062965,48.5295139 62.65553,48.3371336 62.65553,48.20918 C62.65553,47.6606531 63.0760127,47.2767922 63.6107648,47.2767922 C64.0940329,47.2767922 64.3744145,47.544757 64.5394504,48.0045622 L66.0168803,51.9903803 L67.4426468,48.0176994 C67.5949462,47.6086438 67.8753278,47.2767922 68.3718705,47.2767922 C68.8684132,47.2767922 69.2885372,47.6606531 69.2885372,48.1706679 C69.2885372,48.3241763 69.2374119,48.5421113 69.1999201,48.6302931 L66.81856,54.3653506 C66.2457779,55.7579035 65.6733545,56.2808757 64.514695,56.2808757 C64.0811171,56.2808757 63.7758007,56.2177087 63.4572097,56.1023525" id="Fill-34" fill="#2BB3A7"></path>
                <path d="M76.1013617,51.3510801 L76.1013617,51.3253455 C76.1013617,50.5714809 75.5154843,50.023134 74.5480512,50.023134 C73.5804387,50.023134 73.0202136,50.5588835 73.0202136,51.3127481 L73.0202136,51.3383028 C73.0202136,52.0905477 73.6059116,52.6666089 74.5737035,52.6666089 C75.5409573,52.6666089 76.1013617,52.1177221 76.1013617,51.3510801 M72.0782534,53.3945588 C71.4295907,52.7434531 71.0214856,51.7844308 71.0214856,50.0103566 L71.0214856,49.9846219 C71.0214856,47.2254308 72.2696592,45.1065477 74.9297864,45.1065477 C75.8208007,45.1065477 76.5469586,45.3217833 77.0815313,45.6421173 C77.3875652,45.8217202 77.5908105,46.0884252 77.5908105,46.4859633 C77.5908105,46.9947184 77.1708659,47.3924364 76.6621249,47.3924364 C76.4965509,47.3924364 76.318061,47.3272898 76.1777805,47.2517054 C75.7696755,47.0213529 75.4008562,46.8930393 74.8668216,46.8930393 C73.759108,46.8930393 73.1987035,47.7881748 73.0713389,48.9622527 C73.5172945,48.6694531 74.0394896,48.3874512 74.9170499,48.3874512 C76.6877772,48.3874512 78.049682,49.3714883 78.049682,51.2371636 L78.049682,51.2621785 C78.049682,53.0871822 76.585168,54.3525013 74.6506605,54.3525013 C73.4912834,54.3525013 72.7016226,54.0204698 72.0782534,53.3945588" id="Fill-36" fill="#2BB3A7"></path>
                <path d="M76.1013617,51.3510801 L76.1013617,51.3253455 C76.1013617,50.5714809 75.5154843,50.023134 74.5480512,50.023134 C73.5804387,50.023134 73.0202136,50.5588835 73.0202136,51.3127481 L73.0202136,51.3383028 C73.0202136,52.0905477 73.6059116,52.6666089 74.5737035,52.6666089 C75.5409573,52.6666089 76.1013617,52.1177221 76.1013617,51.3510801 Z M72.0782534,53.3945588 C71.4295907,52.7434531 71.0214856,51.7844308 71.0214856,50.0103566 L71.0214856,49.9846219 C71.0214856,47.2254308 72.2696592,45.1065477 74.9297864,45.1065477 C75.8208007,45.1065477 76.5469586,45.3217833 77.0815313,45.6421173 C77.3875652,45.8217202 77.5908105,46.0884252 77.5908105,46.4859633 C77.5908105,46.9947184 77.1708659,47.3924364 76.6621249,47.3924364 C76.4965509,47.3924364 76.318061,47.3272898 76.1777805,47.2517054 C75.7696755,47.0213529 75.4008562,46.8930393 74.8668216,46.8930393 C73.759108,46.8930393 73.1987035,47.7881748 73.0713389,48.9622527 C73.5172945,48.6694531 74.0394896,48.3874512 74.9170499,48.3874512 C76.6877772,48.3874512 78.049682,49.3714883 78.049682,51.2371636 L78.049682,51.2621785 C78.049682,53.0871822 76.585168,54.3525013 74.6506605,54.3525013 C73.4912834,54.3525013 72.7016226,54.0204698 72.0782534,53.3945588 Z" id="Stroke-38" stroke="#2BB3A7" stroke-width="0.5"></path>
                <path d="M44.8898842,23.1284532 C44.3377316,24.6241249 39.9597962,27.0199709 37.9885144,21.4907909" id="Fill-40" fill="#1D8DCD"></path>
                <path d="M46.8302935,24.4700946 C47.1966014,23.2215121 47.3724005,22.2185788 47.3682746,21.5798905 C47.3645075,20.8346642 47.1226941,20.4367662 46.4331311,20.4407254 C45.4395075,20.4470241 45.6802446,21.6327996 45.1194814,23.1524063" id="Fill-42" fill="#2BB3A7"></path>
                <path d="M38.385013,20.7355946 C38.385013,20.7355946 38.4949772,14.6683256 41.7269896,14.6683256 C43.4419276,14.6683256 44.6624755,16.0171475 44.915411,16.7432978 C45.1100457,17.304962 45.4442433,17.6211568 46.0498532,17.4798859 C46.5584149,17.3593108 46.929028,16.6383794 46.2150685,15.0901586 C45.7481246,14.0766076 44.4766308,12.6871141 42.4402316,12.4294072 C40.9190313,12.2375668 39.7503262,13.1465594 39.2430202,13.0668358 C38.7332029,12.9885519 38.9854207,12.2893961 39.2390737,11.0899434 C39.565199,9.55665955 40.2759295,8.25084879 40.5891389,7.6353757 C40.7534573,7.31306215 40.8984018,7.01630334 40.8944553,6.69848887 C40.8876386,6.11360946 40.4267939,5.58091929 39.6563275,5.58091929 C38.7689008,5.58091929 37.7302511,7.11600278 37.0270548,9.26925881 C36.5312296,10.7829267 36.3539954,12.5704981 36.2714775,13.381231 C36.1762231,14.2956224 36.21515,14.7322124 35.7978963,14.7322124 C35.3476354,14.7322124 35.5058545,14.0319768 35.5716895,12.8431419 C35.5977006,12.3592217 35.654925,11.4108173 35.7978963,10.597385 C35.8843607,10.0999675 35.9823059,9.62342579 35.812606,9.24082468 C35.7046151,8.99463544 35.4617254,8.71245362 35.0168461,8.68383952 C33.9916504,8.61779314 33.3655903,10.2397987 33.2419928,12.095936 C33.1427919,13.5979063 33.0708578,14.2556707 33.0932811,15.7202087 C33.1072733,16.8044852 33.1528376,17.3465334 32.7093933,17.3465334 C32.2772505,17.3465334 32.3154599,16.7638135 32.3176125,16.1042495 C32.3195858,15.5274685 32.3195858,14.8688043 32.3477495,14.5445111 C32.4180691,13.7478154 32.495923,13.0857319 32.495923,12.4652199 C32.495923,12.1288692 32.2519569,11.7266521 31.6477821,11.7714629 C30.5208741,11.8547857 30.549576,14.5497301 30.4448141,16.1465408 C30.2168134,19.6081271 31.2647913,23.3270603 32.6146771,25.0088135 C35.3515819,28.4178506 38.0287508,28.7932532 40.1998695,28.7954128 C42.9252935,28.7966725 44.5055121,28.1795798 45.7990705,26.4321401 C47.5025277,24.1361735 47.1410633,22.3613794 45.9694879,22.3613794 C44.9764025,22.3613794 45.3689008,23.3781698 44.3282779,24.6173942 C43.3037997,25.8384425 38.37712,26.6077839 38.385013,20.7355946" id="Fill-44" fill="#2BB3A7"></path>
                <path d="M41.7377348,23.9974221 C42.9428555,23.9974221 43.274183,22.9383404 43.274183,20.1721308 C43.274183,17.4043015 42.9428555,16.3610566 41.7377348,16.3610566 C40.5315378,16.3610566 40.1998516,17.4043015 40.1998516,20.1721308 C40.1998516,22.9383404 40.5315378,23.9974221 41.7377348,23.9974221" id="Fill-46" fill="#294695"></path>
                <path d="M41.7377348,23.9974221 C42.9428555,23.9974221 43.274183,22.9383404 43.274183,20.1721308 C43.274183,17.4043015 42.9428555,16.3610566 41.7377348,16.3610566 C40.5315378,16.3610566 40.1998516,17.4043015 40.1998516,20.1721308 C40.1998516,22.9383404 40.5315378,23.9974221 41.7377348,23.9974221 M41.7377348,14.6683256 C44.254532,14.6683256 45.4447635,16.4065872 45.4447635,20.1721308 C45.4447635,23.9362347 44.254532,25.6908729 41.7377348,25.6908729 C39.2189644,25.6908729 38.029271,23.9362347 38.029271,20.1721308 C38.029271,16.4065872 39.2189644,14.6683256 41.7377348,14.6683256" id="Fill-48" fill="#FEFEFE"></path>
                <path d="M0,66.0006536 L0,65.9828373 C0,64.2265794 1.30880626,62.7715794 3.13047945,62.7715794 C4.12966406,62.7715794 4.76648728,63.0998317 5.34106327,63.5788929 C5.41174168,63.6408002 5.48259948,63.7383401 5.48259948,63.8626944 C5.48259948,64.048956 5.31451402,64.2085831 5.12884866,64.2085831 C5.031621,64.2085831 4.95197326,64.1643122 4.89905414,64.1288596 C4.42152642,63.7028874 3.88211024,63.4190859 3.12151011,63.4190859 C1.75081539,63.4190859 0.725081539,64.5368354 0.725081539,65.9652009 L0.725081539,65.9828373 C0.725081539,67.420021 1.75978474,68.5465887 3.12151011,68.5465887 C3.8909002,68.5465887 4.43031637,68.2806035 4.9609426,67.7925442 C5.01386171,67.7394551 5.09350946,67.6950043 5.18194716,67.6950043 C5.35882257,67.6950043 5.51793868,67.8548113 5.51793868,68.0322547 C5.51793868,68.1386128 5.46501957,68.2273345 5.40295173,68.2806035 C4.79267776,68.8393883 4.1208741,69.1942751 3.1039302,69.1942751 C1.31759622,69.1942751 0,67.783726 0,66.0006536" id="Fill-50" fill="#294695"></path>
                <path d="M10.6900734,68.7862093 C10.6900734,68.9726508 10.5485372,69.1322779 10.3539025,69.1322779 C10.1684165,69.1322779 10.0180903,68.981469 10.0180903,68.7862093 L10.0180903,68.2895117 C9.70846869,68.7862093 9.23973092,69.1855469 8.45294031,69.1855469 C7.34737932,69.1855469 6.70194553,68.4401406 6.70194553,67.3492056 L6.70194553,64.8030905 C6.70194553,64.6078308 6.84348174,64.4570219 7.03793705,64.4570219 C7.2237818,64.4570219 7.38289791,64.6078308 7.38289791,64.8030905 L7.38289791,67.1805803 C7.38289791,68.0323447 7.84266634,68.564495 8.64757502,68.564495 C9.42557567,68.564495 10.0180903,67.9877139 10.0180903,67.1273113 L10.0180903,64.8030905 C10.0180903,64.6078308 10.1594472,64.4570219 10.3539025,64.4570219 C10.5399266,64.4570219 10.6900734,64.6078308 10.6900734,64.8030905 L10.6900734,68.7862093 Z" id="Fill-52" fill="#294695"></path>
                <g id="Group-56" transform="translate(11.428571, 64.374256)" fill="#294695">
                    <path d="M4.65492825,2.44256531 L4.65492825,2.42474898 C4.65492825,1.44017199 3.92105675,0.632858442 2.95703196,0.632858442 C1.9668167,0.632858442 1.28586432,1.44017199 1.28586432,2.40711262 L1.28586432,2.42474898 C1.28586432,3.40950594 2.01112524,4.20818126 2.97479126,4.20818126 C3.9653653,4.20818126 4.65492825,3.40950594 4.65492825,2.44256531 M0.587332029,2.44256531 L0.587332029,2.42474898 C0.587332029,1.12955603 1.59530659,0.02962282 2.97479126,0.02962282 C4.34548598,0.02962282 5.35363992,1.1117397 5.35363992,2.40711262 L5.35363992,2.42474898 C5.35363992,3.71994193 4.33687541,4.8200551 2.95703196,4.8200551 C1.58651663,4.8200551 0.587332029,3.73775826 0.587332029,2.44256531" id="Fill-54"></path>
                </g>
                <path d="M18.3288128,67.8725197 L18.3288128,65.1046904 L17.9574821,65.1046904 C17.7983659,65.1046904 17.6568297,64.9626996 17.6568297,64.8030725 C17.6568297,64.6344473 17.7983659,64.5016347 17.9574821,64.5016347 L18.3288128,64.5016347 L18.3288128,63.4191579 C18.3288128,63.2328963 18.470349,63.0730892 18.6648043,63.0730892 C18.8506491,63.0730892 19.0097652,63.2328963 19.0097652,63.4191579 L19.0097652,64.5016347 L20.1947945,64.5016347 C20.3625212,64.5016347 20.5040574,64.6434455 20.5040574,64.8030725 C20.5040574,64.9716978 20.3625212,65.1046904 20.1947945,65.1046904 L19.0097652,65.1046904 L19.0097652,67.783798 C19.0097652,68.3425827 19.3192074,68.5466607 19.7789759,68.5466607 C20.0179191,68.5466607 20.141696,68.4845735 20.1947945,68.4845735 C20.3539106,68.4845735 20.4864775,68.617746 20.4864775,68.7773731 C20.4864775,68.9015475 20.4068297,68.9992673 20.2920222,69.0437182 C20.0973875,69.1232618 19.8851729,69.1677126 19.6198598,69.1677126 C18.8859883,69.1677126 18.3288128,68.8040076 18.3288128,67.8725197" id="Fill-57" fill="#294695"></path>
                <path d="M24.7748271,67.4022226 L24.7748271,66.9586141 C24.4388356,66.8610742 23.9878571,66.7635343 23.4306817,66.7635343 C22.5730333,66.7635343 22.0953262,67.1360575 22.0953262,67.7128386 L22.0953262,67.7306549 C22.0953262,68.307256 22.6261318,68.6441466 23.2450163,68.6441466 C24.0850848,68.6441466 24.7748271,68.1298126 24.7748271,67.4022226 M21.4055838,67.7572894 L21.4055838,67.7394731 C21.4055838,66.7725325 22.2015232,66.2580186 23.3600033,66.2580186 C23.9435486,66.2580186 24.3591879,66.3377421 24.7660372,66.4530983 L24.7660372,66.2932913 C24.7660372,65.4683414 24.2619602,65.0425492 23.4041324,65.0425492 C22.9441846,65.0425492 22.5550946,65.1489072 22.2191031,65.2997161 C22.1749739,65.3175325 22.1308447,65.3263506 22.0953262,65.3263506 C21.93621,65.3263506 21.7946738,65.193538 21.7946738,65.033731 C21.7946738,64.8919202 21.8919015,64.7853822 21.9805186,64.7497495 C22.4314971,64.5546698 22.8912655,64.4393135 23.4748108,64.4393135 C24.120424,64.4393135 24.615711,64.6079388 24.9517025,64.9450093 C25.2613242,65.2552653 25.4204403,65.6990538 25.4204403,66.2844731 L25.4204403,68.7951354 C25.4204403,68.9902152 25.2789041,69.1322059 25.0930594,69.1322059 C24.898604,69.1322059 24.7660372,68.9902152 24.7660372,68.8129518 L24.7660372,68.3957978 C24.4474462,68.8129518 23.9169993,69.185475 23.1124494,69.185475 C22.2634116,69.185475 21.4055838,68.6975955 21.4055838,67.7572894" id="Fill-59" fill="#294695"></path>
                <path d="M26.7018363,68.5999297 C26.6401272,68.5554788 26.5780594,68.4669371 26.5780594,68.3515809 C26.5780594,68.1919538 26.7106262,68.0587813 26.8787117,68.0587813 C26.9406001,68.0587813 27.0024886,68.0765976 27.0467971,68.1120503 C27.5155349,68.4313045 28.0018526,68.5999297 28.4969602,68.5999297 C29.0451663,68.5999297 29.4432257,68.3161282 29.4432257,67.8725197 L29.4432257,67.8547033 C29.4432257,67.3934584 28.9038095,67.216015 28.3023255,67.0473898 C27.5860339,66.8433119 26.790274,66.5949631 26.790274,65.7523768 L26.790274,65.7345605 C26.790274,64.9448833 27.4446771,64.4215512 28.3464547,64.4215512 C28.8329517,64.4215512 29.363578,64.5723601 29.8057665,64.8118907 C29.8942042,64.8649798 29.9738519,64.9626996 29.9738519,65.0956922 C29.9738519,65.2553193 29.8411057,65.3884918 29.6730202,65.3884918 C29.6111318,65.3884918 29.5580333,65.3708555 29.5228735,65.3530391 C29.1337834,65.1313249 28.7179648,64.9981523 28.3288748,64.9981523 C27.789638,64.9981523 27.4446771,65.2819538 27.4446771,65.6636551 L27.4446771,65.6812915 C27.4446771,66.1160818 28.0106425,66.2845271 28.6207371,66.4707887 C29.3282387,66.6838647 30.0886595,66.9586681 30.0886595,67.783798 L30.0886595,67.8014343 C30.0886595,68.671015 29.3723679,69.1765308 28.4614416,69.1765308 C27.8603164,69.1765308 27.1969439,68.9549965 26.7018363,68.5999297" id="Fill-61" fill="#294695"></path>
                <path d="M33.9341569,68.5999297 C33.8722684,68.5554788 33.8102006,68.4669371 33.8102006,68.3515809 C33.8102006,68.1919538 33.9429468,68.0587813 34.1110323,68.0587813 C34.1731001,68.0587813 34.2348092,68.0765976 34.2789384,68.1120503 C34.7476761,68.4313045 35.2339938,68.5999297 35.7292808,68.5999297 C36.277487,68.5999297 36.6755463,68.3161282 36.6755463,67.8725197 L36.6755463,67.8547033 C36.6755463,67.3934584 36.1359508,67.216015 35.5346461,67.0473898 C34.8185339,66.8433119 34.0225946,66.5949631 34.0225946,65.7523768 L34.0225946,65.7345605 C34.0225946,64.9448833 34.6769977,64.4215512 35.5789547,64.4215512 C36.0652723,64.4215512 36.5958986,64.5723601 37.0380871,64.8118907 C37.1265248,64.8649798 37.2059932,64.9626996 37.2059932,65.0956922 C37.2059932,65.2553193 37.0734263,65.3884918 36.9055202,65.3884918 C36.8434524,65.3884918 36.7903539,65.3708555 36.7551941,65.3530391 C36.3659247,65.1313249 35.9504648,64.9981523 35.5611954,64.9981523 C35.0217792,64.9981523 34.6769977,65.2819538 34.6769977,65.6636551 L34.6769977,65.6812915 C34.6769977,66.1160818 35.2429631,66.2845271 35.8532371,66.4707887 C36.5605594,66.6838647 37.3209801,66.9586681 37.3209801,67.783798 L37.3209801,67.8014343 C37.3209801,68.671015 36.6046885,69.1765308 35.6939416,69.1765308 C35.092637,69.1765308 34.4292645,68.9549965 33.9341569,68.5999297" id="Fill-63" fill="#294695"></path>
                <path d="M38.7351223,64.8031265 C38.7351223,64.6168649 38.8854485,64.4570579 39.0712932,64.4570579 C39.2657485,64.4570579 39.4160747,64.6078668 39.4160747,64.8031265 L39.4160747,68.7862453 C39.4160747,68.981505 39.2745385,69.1323139 39.0800832,69.1323139 C38.8854485,69.1323139 38.7351223,68.981505 38.7351223,68.7862453 L38.7351223,64.8031265 Z M38.6732339,63.0641451 C38.6732339,62.8424308 38.8502886,62.7004401 39.0712932,62.7004401 C39.3010877,62.7004401 39.4779631,62.8424308 39.4779631,63.0641451 L39.4779631,63.1796813 C39.4779631,63.3923974 39.3010877,63.5432063 39.0712932,63.5432063 C38.8502886,63.5432063 38.6732339,63.3923974 38.6732339,63.1796813 L38.6732339,63.0641451 Z" id="Fill-65" fill="#294695"></path>
                <path d="M41.0870271,64.8031265 C41.0870271,64.6168649 41.2371738,64.4570579 41.4230186,64.4570579 C41.6174739,64.4570579 41.7678001,64.6078668 41.7678001,64.8031265 L41.7678001,65.2998241 C42.0684524,64.8031265 42.5459801,64.4037889 43.3331295,64.4037889 C44.4385111,64.4037889 45.0839449,65.1490152 45.0839449,66.2401302 L45.0839449,68.7862453 C45.0839449,68.981505 44.9336187,69.1323139 44.747774,69.1323139 C44.5533187,69.1323139 44.4029925,68.981505 44.4029925,68.7862453 L44.4029925,66.4087555 C44.4029925,65.5569911 43.9432241,65.0246609 43.1386742,65.0246609 C42.3515248,65.0246609 41.7678001,65.6014419 41.7678001,66.4620245 L41.7678001,68.7862453 C41.7678001,68.981505 41.6262639,69.1323139 41.4318085,69.1323139 C41.2371738,69.1323139 41.0870271,68.981505 41.0870271,68.7862453 L41.0870271,64.8031265 Z" id="Fill-67" fill="#294695"></path>
                <path d="M49.4157241,64.8031265 C49.4157241,64.6168649 49.5658708,64.4570579 49.751895,64.4570579 C49.9463503,64.4570579 50.0964971,64.6078668 50.0964971,64.8031265 L50.0964971,68.7862453 C50.0964971,68.981505 49.9549609,69.1323139 49.7605055,69.1323139 C49.5658708,69.1323139 49.4157241,68.981505 49.4157241,68.7862453 L49.4157241,64.8031265 Z M49.3538356,63.0641451 C49.3538356,62.8424308 49.530711,62.7004401 49.751895,62.7004401 C49.9816895,62.7004401 50.1585649,62.8424308 50.1585649,63.0641451 L50.1585649,63.1796813 C50.1585649,63.3923974 49.9816895,63.5432063 49.751895,63.5432063 C49.530711,63.5432063 49.3538356,63.3923974 49.3538356,63.1796813 L49.3538356,63.0641451 Z" id="Fill-69" fill="#294695"></path>
                <path d="M51.7674674,64.8031265 C51.7674674,64.6168649 51.9176142,64.4570579 52.1036383,64.4570579 C52.2980936,64.4570579 52.4484198,64.6078668 52.4484198,64.8031265 L52.4484198,65.2998241 C52.7492515,64.8031265 53.2264204,64.4037889 54.0135698,64.4037889 C55.1189514,64.4037889 55.7643852,65.1490152 55.7643852,66.2401302 L55.7643852,68.7862453 C55.7643852,68.981505 55.6142384,69.1323139 55.4285731,69.1323139 C55.2339384,69.1323139 55.0836122,68.981505 55.0836122,68.7862453 L55.0836122,66.4087555 C55.0836122,65.5569911 54.6238438,65.0246609 53.8191145,65.0246609 C53.0319651,65.0246609 52.4484198,65.6014419 52.4484198,66.4620245 L52.4484198,68.7862453 C52.4484198,68.981505 52.3068836,69.1323139 52.1122489,69.1323139 C51.9176142,69.1323139 51.7674674,68.981505 51.7674674,68.7862453 L51.7674674,64.8031265 Z" id="Fill-71" fill="#294695"></path>
                <path d="M57.5322782,67.8725197 L57.5322782,65.1046904 L57.1609475,65.1046904 C57.0018314,65.1046904 56.8602952,64.9626996 56.8602952,64.8030725 C56.8602952,64.6344473 57.0018314,64.5016347 57.1609475,64.5016347 L57.5322782,64.5016347 L57.5322782,63.4191579 C57.5322782,63.2328963 57.6738144,63.0730892 57.8684491,63.0730892 C58.0541145,63.0730892 58.2132306,63.2328963 58.2132306,63.4191579 L58.2132306,64.5016347 L59.3980806,64.5016347 C59.566166,64.5016347 59.7077022,64.6434455 59.7077022,64.8030725 C59.7077022,64.9716978 59.566166,65.1046904 59.3980806,65.1046904 L58.2132306,65.1046904 L58.2132306,67.783798 C58.2132306,68.3425827 58.5226729,68.5466607 58.9826207,68.5466607 C59.2213845,68.5466607 59.3451614,68.4845735 59.3980806,68.4845735 C59.5573761,68.4845735 59.6899429,68.617746 59.6899429,68.7773731 C59.6899429,68.9015475 59.6104746,68.9992673 59.4954876,69.0437182 C59.3008529,69.1232618 59.0886383,69.1677126 58.8233252,69.1677126 C58.0892743,69.1677126 57.5322782,68.8040076 57.5322782,67.8725197" id="Fill-73" fill="#294695"></path>
                <path d="M64.181771,66.541766 C64.1109132,65.707818 63.6333855,64.980408 62.7226386,64.980408 C61.9268787,64.980408 61.3253947,65.6457308 61.2369569,66.541766 L64.181771,66.541766 Z M62.8286562,69.1942391 C61.5731279,69.1942391 60.5472146,68.2272985 60.5472146,66.8079312 L60.5472146,66.7902948 C60.5472146,65.4682874 61.4759002,64.4038069 62.7402185,64.4038069 C64.0933333,64.4038069 64.862544,65.5125583 64.862544,66.7280276 C64.862544,66.9142892 64.7122179,67.0474618 64.5443118,67.0474618 L61.2369569,67.0474618 C61.3341846,68.0410369 62.0328963,68.6000017 62.8464155,68.6000017 C63.4122016,68.6000017 63.8280202,68.3782874 64.1640117,68.0676714 C64.2171102,68.0232206 64.2789987,67.9877679 64.3584671,67.9877679 C64.5265525,67.9877679 64.6592988,68.1209404 64.6592988,68.2805675 C64.6592988,68.3602911 64.6237802,68.4401946 64.5531018,68.5024618 C64.1198826,68.9192558 63.6070157,69.1942391 62.8286562,69.1942391 L62.8286562,69.1942391 Z" id="Fill-75" fill="#294695"></path>
                <path d="M66.152999,64.8031265 C66.152999,64.6168649 66.3033252,64.4570579 66.4891699,64.4570579 C66.6836252,64.4570579 66.833772,64.6078668 66.833772,64.8031265 L66.833772,65.6635291 C67.1699429,64.9006664 67.833136,64.4394215 68.4078914,64.4394215 C68.611316,64.4394215 68.7440623,64.5898705 68.7440623,64.7853102 C68.7440623,64.9717518 68.620106,65.1047443 68.4432306,65.1311989 C67.5590329,65.2377369 66.833772,65.9028798 66.833772,67.2248872 L66.833772,68.7862453 C66.833772,68.9726868 66.6924152,69.1323139 66.4979599,69.1323139 C66.3033252,69.1323139 66.152999,68.981505 66.152999,68.7862453 L66.152999,64.8031265 Z" id="Fill-77" fill="#294695"></path>
                <path d="M71.3521673,63.7207217 C71.3521673,63.6764508 71.3697472,63.6230019 71.3964759,63.5877291 L71.9269227,62.7802356 C72.0153604,62.647243 72.1125881,62.5763377 72.2453343,62.5763377 C72.4575489,62.5763377 72.722862,62.7183284 72.722862,62.8425028 C72.722862,62.9135881 72.6697635,62.9753154 72.5989057,63.0465807 L71.9357127,63.6764508 C71.7943558,63.8182616 71.6883382,63.8448961 71.5202528,63.8448961 C71.4230251,63.8448961 71.3521673,63.7918071 71.3521673,63.7207217 L71.3521673,63.7207217 Z M72.9881751,66.54182 C72.9174967,65.707872 72.4397896,64.980462 71.5290427,64.980462 C70.7332828,64.980462 70.1317988,65.6457848 70.0433611,66.54182 L72.9881751,66.54182 Z M71.6350603,69.1942931 C70.379532,69.1942931 69.3536187,68.2273525 69.3536187,66.8079852 L69.3536187,66.7903488 C69.3536187,65.4683414 70.2821249,64.4038609 71.5466226,64.4038609 C72.8997374,64.4038609 73.6691275,65.5126122 73.6691275,66.7280816 C73.6691275,66.9143432 73.518622,67.0473358 73.3507159,67.0473358 L70.0433611,67.0473358 C70.1405887,68.0410909 70.8393004,68.5998757 71.6528196,68.5998757 C72.2187851,68.5998757 72.6344243,68.3783414 72.9704159,68.0675455 C73.0235144,68.0232746 73.0854028,67.9878219 73.1648712,67.9878219 C73.3329566,67.9878219 73.4657029,68.1209944 73.4657029,68.2806215 C73.4657029,68.3603451 73.4301843,68.4402486 73.3595059,68.5023358 C72.9262867,68.9193098 72.4134198,69.1942931 71.6350603,69.1942931 L71.6350603,69.1942931 Z" id="Fill-79" fill="#294695"></path>
                <path d="M74.7115444,68.5999297 C74.6496559,68.5554788 74.5877674,68.4669371 74.5877674,68.3515809 C74.5877674,68.1919538 74.7205137,68.0587813 74.8884198,68.0587813 C74.9504876,68.0587813 75.0123761,68.0765976 75.0565052,68.1120503 C75.525243,68.4313045 76.0115607,68.5999297 76.5066683,68.5999297 C77.0548744,68.5999297 77.4529338,68.3161282 77.4529338,67.8725197 L77.4529338,67.8547033 C77.4529338,67.3934584 76.9135176,67.216015 76.3120336,67.0473898 C75.5959214,66.8433119 74.7999821,66.5949631 74.7999821,65.7523768 L74.7999821,65.7345605 C74.7999821,64.9448833 75.4543852,64.4215512 76.3563421,64.4215512 C76.8426598,64.4215512 77.373286,64.5723601 77.8154746,64.8118907 C77.9039123,64.8649798 77.98356,64.9626996 77.98356,65.0956922 C77.98356,65.2553193 77.8508138,65.3884918 77.6827283,65.3884918 C77.6208399,65.3884918 77.5679207,65.3708555 77.5324022,65.3530391 C77.1434915,65.1313249 76.7278523,64.9981523 76.3387622,64.9981523 C75.7993461,64.9981523 75.4543852,65.2819538 75.4543852,65.6636551 L75.4543852,65.6812915 C75.4543852,66.1160818 76.0203506,66.2845271 76.6306246,66.4707887 C77.3379468,66.6838647 78.0983676,66.9586681 78.0983676,67.783798 L78.0983676,67.8014343 C78.0983676,68.671015 77.3822554,69.1765308 76.4713291,69.1765308 C75.8700245,69.1765308 75.2068314,68.9549965 74.7115444,68.5999297" id="Fill-81" fill="#294695"></path>
            </g>
        </g>
    </g>
</svg>