<?xml version="1.0" encoding="utf-8"?>
<!-- Generator: Adobe Illustrator 16.0.0, SVG Export Plug-In . SVG Version: 6.00 Build 0)  -->
<!DOCTYPE svg PUBLIC "-//W3C//DTD SVG 1.1//EN" "http://www.w3.org/Graphics/SVG/1.1/DTD/svg11.dtd">
<svg version="1.1" xmlns="http://www.w3.org/2000/svg" xmlns:xlink="http://www.w3.org/1999/xlink" x="0px" y="0px"
	 width="706.668px" height="412.223px" viewBox="-203.002 -56.112 706.668 412.223"
	 enable-background="new -203.002 -56.112 706.668 412.223" xml:space="preserve">
<g id="Camada_2">
</g>
<g id="Layer_1">
	
		<radialGradient id="SVGID_1_" cx="439.5947" cy="854.0205" r="263.8018" gradientTransform="matrix(2.5064 0 0 1.4568 -1180.843 -1228.2272)" gradientUnits="userSpaceOnUse">
		<stop  offset="0" style="stop-color:#2E77BC"/>
		<stop  offset="0.9161" style="stop-color:#2E77BC"/>
		<stop  offset="0.9926" style="stop-color:#2E77BC"/>
	</radialGradient>
	<path fill="url(#SVGID_1_)" d="M503.666-56.112h-706.668v412.223h706.668"/>
	<path fill="#FFFFFF" d="M-82.459,103.806l-10.846-26.428l-10.784,26.428 M156.474,93.282c-2.178,1.322-4.753,1.366-7.839,1.366
		h-19.25V79.923h19.512c2.762,0,5.644,0.124,7.515,1.195c2.056,0.967,3.327,3.022,3.327,5.861
		C159.738,89.877,158.527,92.209,156.474,93.282z M293.802,103.806l-10.967-26.428l-10.902,26.428H293.802z M37.813,132.413H21.568
		l-0.061-51.922l-22.977,51.922h-13.913L-38.42,80.445v51.968h-32.229l-6.089-14.787h-32.994l-6.151,14.787h-17.21l28.376-66.295
		h23.543l26.951,62.768V66.118h25.863l20.738,44.973l19.05-44.973h26.384L37.813,132.413L37.813,132.413z M102.558,132.413H49.623
		V66.118h52.936v13.806H65.47v11.95h36.198v13.589H65.47v13.239h37.088V132.413z M177.195,83.972c0,10.57-7.055,16.031-11.165,17.67
		c3.468,1.32,6.428,3.652,7.838,5.583c2.238,3.297,2.625,6.243,2.625,12.164v13.024h-15.985l-0.059-8.361
		c0-3.989,0.383-9.726-2.504-12.916c-2.313-2.332-5.843-2.837-11.548-2.837h-17.01v24.113h-15.844V66.118h36.446
		c8.098,0,14.065,0.213,19.189,3.176C174.188,72.255,177.195,76.577,177.195,83.972z M202.554,132.413h-16.168V66.118h16.168
		V132.413z M390.134,132.413h-22.456l-30.037-49.759v49.759h-32.271l-6.166-14.787h-32.918l-5.982,14.787h-18.542
		c-7.703,0-17.453-1.704-22.976-7.333c-5.569-5.629-8.463-13.254-8.463-25.31c0-9.832,1.728-18.821,8.539-25.922
		c5.122-5.291,13.144-7.731,24.063-7.731h15.343v14.205h-15.022c-5.782,0-9.045,0.86-12.192,3.928
		c-2.703,2.792-4.555,8.068-4.555,15.017c0,7.103,1.41,12.223,4.359,15.569c2.438,2.624,6.873,3.419,11.04,3.419h7.12l22.333-52.136
		h23.743l26.829,62.706V66.12h24.126l27.854,46.171V66.12h16.231V132.413L390.134,132.413z M-133.277,145.433h27.075l6.104-14.724
		h13.667l6.089,14.724h53.271v-11.256l4.755,11.305H5.339l4.755-11.473v11.424h132.39l-0.062-24.17h2.561
		c1.793,0.062,2.318,0.228,2.318,3.19v20.98h68.473v-5.625c5.522,2.959,14.112,5.625,25.416,5.625h28.808l6.162-14.724h13.67
		l6.027,14.724h55.511v-13.985l8.406,13.985h44.483v-92.46h-44.024v10.92l-6.163-10.92h-45.174v10.92l-5.659-10.92h-61.02
		c-10.213,0-19.191,1.425-26.443,5.398v-5.398h-42.109v5.398c-4.616-4.095-10.904-5.398-17.895-5.398H1.934L-8.388,76.854
		l-10.6-23.881h-48.455v10.92l-5.323-10.92h-41.324l-19.189,43.961L-133.277,145.433L-133.277,145.433z"/>
	<path fill="#FFFFFF" d="M430.501,194.333H401.62c-2.881,0-4.796,0.109-6.413,1.199c-1.672,1.074-2.315,2.667-2.315,4.771
		c0,2.502,1.413,4.204,3.466,4.938c1.674,0.582,3.468,0.754,6.106,0.754l8.588,0.23c8.666,0.213,14.454,1.704,17.98,5.335
		c0.641,0.508,1.029,1.074,1.469,1.642 M430.501,238.051c-3.849,5.63-11.35,8.483-21.504,8.483h-30.603v-14.22h30.478
		c3.025,0,5.138-0.398,6.413-1.639c1.105-1.029,1.875-2.518,1.875-4.325c0-1.934-0.77-3.467-1.938-4.386
		c-1.148-1.012-2.821-1.469-5.581-1.469c-14.88-0.508-33.442,0.457-33.442-20.527c0-9.617,6.108-19.742,22.733-19.742h31.564
		v-13.192h-29.326c-8.85,0-15.282,2.12-19.832,5.415v-5.415h-43.374c-6.94,0-15.079,1.718-18.934,5.415v-5.415h-77.458v5.415
		c-6.166-4.45-16.566-5.415-21.37-5.415h-51.096v5.415c-4.876-4.724-15.722-5.415-22.333-5.415H89.593l-13.085,14.161
		l-12.256-14.161h-85.417v92.524h83.812l13.483-14.384l12.702,14.384l51.662,0.045v-21.768h5.079
		c6.855,0.107,14.94-0.168,22.071-3.253v24.972h42.613v-24.116h2.054c2.625,0,2.883,0.107,2.883,2.726v21.387h129.446
		c8.216,0,16.806-2.105,21.566-5.921v5.921h41.057c8.543,0,16.889-1.199,23.237-4.267v-17.233H430.501z M367.291,211.561
		c3.085,3.194,4.739,7.225,4.739,14.05c0,14.265-8.912,20.924-24.892,20.924h-30.865v-14.22h30.74c3.005,0,5.136-0.398,6.472-1.639
		c1.089-1.029,1.872-2.518,1.872-4.325c0-1.934-0.846-3.467-1.933-4.386c-1.213-1.012-2.885-1.469-5.644-1.469
		c-14.819-0.508-33.378,0.457-33.378-20.527c0-9.617,6.043-19.742,22.655-19.742h31.771v14.114h-29.069
		c-2.878,0-4.755,0.109-6.35,1.199c-1.734,1.074-2.379,2.667-2.379,4.772c0,2.5,1.475,4.204,3.464,4.937
		c1.676,0.582,3.469,0.754,6.171,0.754l8.53,0.23C357.797,206.438,363.702,207.924,367.291,211.561z M224.304,207.466
		c-2.121,1.259-4.741,1.364-7.825,1.364h-19.25v-14.89h19.514c2.82,0,5.644,0.057,7.562,1.197c2.054,1.074,3.28,3.126,3.28,5.966
		C227.584,203.938,226.357,206.226,224.304,207.466z M233.874,215.718c3.528,1.303,6.411,3.636,7.762,5.567
		c2.238,3.237,2.562,6.258,2.625,12.103v13.146h-15.907v-8.296c0-3.991,0.383-9.895-2.562-12.979
		c-2.316-2.377-5.845-2.942-11.627-2.942H197.23v24.218h-15.922v-66.312h36.584c8.024,0,13.866,0.355,19.066,3.131
		c5.001,3.021,8.147,7.16,8.147,14.725C245.104,208.662,238.045,214.063,233.874,215.718z M253.892,180.223h52.888v13.714h-37.105
		v12.055h36.199v13.53h-36.199v13.192l37.105,0.061v13.76h-52.888V180.223z M146.979,210.826h-20.477v-16.888h20.662
		c5.72,0,9.693,2.332,9.693,8.132C156.856,207.803,153.067,210.826,146.979,210.826z M110.719,240.504L86.39,213.493l24.329-26.154
		V240.504z M47.889,232.714H8.928v-13.192h34.789v-13.53H8.928v-12.055h39.729l17.333,19.322L47.889,232.714z M173.868,202.07
		c0,18.418-13.743,22.222-27.595,22.222h-19.771v22.242H95.701l-19.512-21.953l-20.278,21.953H-6.856v-66.312h63.733l19.496,21.736
		l20.156-21.736h50.634C159.738,180.223,173.868,183.704,173.868,202.07z"/>
</g>
</svg>
