<?xml version="1.0" encoding="utf-8"?>
<!-- Generator: Adobe Illustrator 16.0.0, SVG Export Plug-In . SVG Version: 6.00 Build 0)  -->
<!DOCTYPE svg PUBLIC "-//W3C//DTD SVG 1.1//EN" "http://www.w3.org/Graphics/SVG/1.1/DTD/svg11.dtd">
<svg version="1.1" xmlns="http://www.w3.org/2000/svg" xmlns:xlink="http://www.w3.org/1999/xlink" x="0px" y="0px"
	 width="706.668px" height="412.223px" viewBox="-47 190 706.668 412.223" enable-background="new -47 190 706.668 412.223"
	 xml:space="preserve">
<g id="Camada_2">
	<path fill="#F1F1F1" d="M659.668,190H-47v412.223h706.668"/>
</g>
<g id="layout">
	<path id="mastercard_x5F_1" fill="#FA5050" d="M211.018,531.986c178.291,0,178.714-271.993,0-271.993
		C31.452,259.993,31.87,531.986,211.018,531.986z"/>
	<path id="mastercard_x5F_2" fill="#FAC814" d="M255.643,400.463l0.428,7.426h88.388c-0.423,3.197-0.632,6.166-1.061,9.134h-22.95
		l-1.484,7.451h23.159c-0.423,2.968-1.056,5.956-1.907,8.92h-77.78l2.132,7.451h73.521c-0.852,2.968-1.912,5.936-2.979,8.925
		h-66.937l3.407,7.426h60.343c-1.274,2.988-2.759,5.936-4.462,8.925h-50.786l4.677,7.431h41.855
		c-1.907,2.988-4.034,6.187-6.16,8.925H288.15l6.589,7.446h16.146c-2.759,3.381-5.946,6.369-9.134,9.358
		c21.884,19.966,52.274,32.706,90.739,32.706c179.132,0,179.556-271.993,0-271.993c-38.465,0-68.855,12.76-90.739,32.727
		c4.243,3.606,8.073,7.864,11.684,12.118H291.98l-6.166,7.222h33.15c2.122,2.989,4.243,5.931,5.947,9.129h-45.477l-4.462,7.431
		h53.974c1.494,2.989,2.978,5.978,4.258,8.946h-62.898l-3.407,7.425h69.278c1.061,2.968,1.912,5.957,2.764,8.945h-75.229
		l-2.331,7.431h79.469c0.852,2.968,1.274,5.932,1.912,8.92h-83.084l-1.494,7.431h85.645c0.852,7.66,1.274,15.315,0.852,22.746
		H255.643L255.643,400.463z"/>
	<path id="mastercard_x5F_3" fill="#FFFFFF" d="M237.155,391.538l2.331-10.21c-11.047-2.116-31.023-4.233-34.425,10.21
		c-1.265,5.314-0.852,10.21,3.198,14.03c3.606,3.61,9.343,3.401,12.959,6.579c1.698,1.698,1.275,4.457-0.22,6.161
		c-1.693,1.912-4.243,1.912-6.579,1.912c-4.682,0-9.139-1.061-13.602-2.122l-1.494,7.432c-0.209,0.418-0.841,2.346-0.638,2.779
		c0.209,0.209,2.132,0.627,2.555,0.831c4.04,1.081,7.864,1.081,12.107,1.29c7.65,0,16.585-0.647,21.043-7.869
		c2.544-4.044,3.188-10.414,1.28-14.877c-2.132-5.104-7.869-5.727-12.332-7.635c-2.122-0.877-4.463-2.575-4.463-4.9
		c0-2.117,2.341-3.815,4.244-4.024c2.555-0.229,4.891-0.439,7.237-0.439C232.692,390.895,235.023,391.538,237.155,391.538z
		 M305.995,430.221h8.935c1.266,0,4.243,0.622,4.463-0.872l3.392-19.966c0.643-3.815,0.852-8.299,3.197-11.705
		c2.117-3.172,7.426-5.08,11.256-4.437c0.852,0.204,0.852-1.081,0.852-1.907c0.429-1.291,0.852-2.785,1.275-4.049
		c0.638-2.346,1.703-4.667,3.188-6.579c-7.222-1.704-12.327,3.407-16.366,8.716l1.704-8.507c-1.704,0-13.179-0.643-13.388,0.413
		L311.952,396L305.995,430.221z M247.982,369.873l-5.309,31.002l-3.188,17.642c-0.428,3.401-1.275,8.094,2.336,10.001
		c4.049,2.116,9.787,2.116,14.453,1.265c0.852-0.229,4.253-0.643,4.462-1.907l1.698-8.282c-2.55,0.831-10.827,2.121-9.991-2.78
		l2.77-15.938l1.275-8.506c0.209,0,0.209-1.244,0.428-1.244l3.611,0.209h4.243c0.219,0,0.423-2.142,0.423-2.142l1.28-8.277h-7.645
		l1.907-11.042H247.982z M385.901,383.882l1.913-10.399c0.214-1.076,0.847-2.137-0.209-2.57c-1.071-0.627-2.347-0.831-3.616-1.27
		c-5.31-1.469-10.838-2.137-16.355-1.469c-9.573,0.826-18.493,5.931-22.955,14.856c-4.039,8.303-7.441,19.757-4.677,29.116
		c3.182,10.623,11.046,17.202,22.312,17.845c4.671,0.229,9.985,0.229,14.239-1.683c2.336-1.285,2.126-2.988,2.555-5.31l1.484-8.507
		c-6.386,5.519-18.278,5.101-24.016-1.29c-3.402-3.819-3.402-9.547-2.551-14.233c0.852-4.463,2.551-10.211,5.947-13.592
		C366.558,379.002,378.252,379.002,385.901,383.882z M477.916,418.93c-5.314-1.035-7.018-7.222-6.38-12.098
		c0.643-4.875,2.55-9.771,6.38-12.969c4.039-3.178,9.776-1.913,11.475,3.197c1.484,4.457,0.852,10.002-1.07,14.443
		C486.198,415.758,482.802,418.726,477.916,418.93z M498.739,430.221l10.2-60.139h-8.288h-3.83c-0.423,0-0.423,0.831-0.423,1.265
		l-2.969,16.789c-4.253-9.777-18.696-8.303-25.505-2.759c-7.864,6.574-11.684,16.993-11.052,27.203
		c0.429,6.788,4.034,14.652,10.629,16.973c7.013,2.785,14.657,0.877,19.334-4.875c0.209,1.703-0.638,3.631-0.847,5.543H498.739z
		 M100.302,430.221l5.095-30.4l2.346-14.673c0.209-0.209,0.428,0,0.632,0c0.423,0,0.209,0.872,0.209,1.285
		c0,1.285,0.214,2.555,0.214,3.82l0.428,8.302c0.632,10.186,1.484,20.375,1.913,30.585c0,1.494,0.418,1.081,1.913,1.081h5.1
		c0.643,0,6.793,0.413,7.012-0.229l5.309-12.536L139.398,396c0.428-1.265,3.616-11.062,4.891-10.853l-7.869,45.073h9.991
		c1.704,0,2.341,0.413,2.555-1.081l1.061-5.728l3.825-20.833l5.738-32.707h-17.432c-0.423,0-5.09-0.229-5.309,0l-1.703,4.029
		l-13.168,31.666l-1.917-30.38l-0.204-4.901c0-0.846-2.132-0.413-2.764-0.413H99.659c-1.275,0-1.484-0.229-1.698,1.041l-0.847,5.518
		l-3.616,21.042l-5.738,32.747H100.302z M412.891,407.889c-0.219,4.482-1.07,8.303-5.313,10.628
		c-2.979,1.494-9.991,3.197-10.843-1.704c-0.633-4.232,2.555-7.221,6.16-8.506C404.39,407.889,412.248,405.777,412.891,407.889z
		 M423.942,420.011l3.392-17.432c0.852-4.233,2.77-9.547,0.852-13.592c-4.891-9.776-18.059-8.925-27.198-8.282
		c-1.479,0-7.645,0.622-8.073,2.117l-2.979,10.832c3.83-2.116,9.354-2.32,13.816-2.529c3.825-0.229,10.837-0.668,11.266,4.875
		c0,0.434-0.429,2.969-0.647,2.969c-1.056,0-2.122-0.209-3.183-0.209c-2.127,0-4.254,0-6.37,0.209
		c-4.682,0.412-9.145,0.852-13.178,2.988c-7.864,4.232-12.75,16.56-6.381,24.215c6.161,7.451,19.768,5.523,25.506-1.265
		c-0.21,1.703,0,3.61-0.21,5.313h11.465C422.448,430.221,423.724,421.066,423.942,420.011z M427.334,430.221h8.931h3.819
		c0.424,0,0.424-0.872,0.424-1.081l3.615-20.399c0.643-4.045,1.066-8.277,3.616-11.68c1.27-1.912,3.396-3.197,5.742-4.029
		c0.633-0.229,6.151-0.872,6.151-0.872l2.132-11.664c-6.166,0.418-10.838,3.616-14.239,8.925l1.274-8.507
		c-1.698,0-12.75-0.643-12.959,0.413L433.286,396L427.334,430.221z M184.88,407.889c-0.219,4.482-1.071,8.303-5.314,10.628
		c-2.979,1.494-9.777,3.197-10.624-1.704c-0.856-4.232,2.331-7.221,6.161-8.506C176.587,407.889,184.232,405.777,184.88,407.889z
		 M195.927,420.011l3.616-17.432c0.627-4.233,2.55-9.547,0.627-13.592c-4.886-9.776-18.049-8.925-27.193-8.282
		c-1.275,0-7.65,0.622-8.073,2.117l-2.979,10.832c3.83-2.116,9.349-2.32,13.811-2.529c3.83-0.229,10.843-0.668,11.266,4.875
		c0,0.434-0.214,2.969-0.637,2.969c-1.061,0-2.132-0.209-3.188-0.209c-2.127,0-4.253,0-6.375,0.209
		c-4.677,0.412-8.93,0.852-13.173,2.988c-7.864,4.232-12.755,16.56-6.38,24.215c6.161,7.451,19.763,5.523,25.5-1.265
		c-0.204,1.703,0,3.61-0.204,5.313h11.465C194.433,430.221,195.708,421.066,195.927,420.011z M279.857,400.049h-1.484
		c0.429-3.615,2.132-7.017,5.314-8.715c2.979-1.704,7.018-1.291,9.567,1.265c1.265,1.265,1.693,3.172,1.913,4.876
		c0,0.433,0.204,2.137,0,2.346c-0.219,0.229-1.484,0-1.703,0h-12.536c0.423,0,0.423,0.229,0.423,0.643v0.622
		c0-1.474-0.219-1.036-1.275-1.265h0.632h-0.852h0.219L279.857,400.049z M281.561,406.832v1.908v0.229h2.759h20.62
		c0.209,0,1.483,0,1.483-0.229c0-1.266,0.22-2.551,0.424-3.815c0.423-2.765,0.643-5.544,0.643-8.073
		c0-5.105-1.918-10.001-5.957-13.178c-7.849-5.957-21.247-4.462-28.677,1.265c-7.66,5.957-10.842,17.641-9.358,27
		c0.852,4.875,2.77,9.98,7.018,13.179c4.253,2.759,8.716,4.437,13.597,4.875c4.682,0.438,10.2,0.643,14.663-0.643
		c0.852-0.413,1.912-0.622,2.759-1.04c1.275-0.663,1.275-0.867,1.494-2.137l1.704-9.568V416.4
		c-6.166,3.61-12.542,4.232-19.559,3.192c-3.182-0.434-5.941-2.78-7.425-5.31c-0.648-1.081-1.923-3.61-1.28-4.9
		c0.423-0.643,0.632-0.414,1.28-0.414h3.814v-0.229C281.352,408.098,281.561,406.832,281.561,406.832z"/>
</g>
</svg>
