<?xml version="1.0" encoding="utf-8"?>
<!-- Generator: Adobe Illustrator 16.0.0, SVG Export Plug-In . SVG Version: 6.00 Build 0)  -->
<!DOCTYPE svg PUBLIC "-//W3C//DTD SVG 1.1//EN" "http://www.w3.org/Graphics/SVG/1.1/DTD/svg11.dtd">
<svg version="1.1" xmlns="http://www.w3.org/2000/svg" xmlns:xlink="http://www.w3.org/1999/xlink" x="0px" y="0px"
	 width="706.668px" height="412.223px" viewBox="-324 -188 706.668 412.223" enable-background="new -324 -188 706.668 412.223"
	 xml:space="preserve">
<g id="Camada_2">
	<path fill="#F16337" d="M382.668-188H-324v412.223h706.668"/>
</g>
<g id="layout">
	<g>
		<path fill="#FFFFFF" d="M-152.577-83.342v72.839h-11.333v-72.839h-26.412v-10.189h65.356v10.202h-27.624v-0.013H-152.577z"/>
		<path fill="#FFFFFF" d="M-79.551-10.503l-5.731-17.513h-30.892l-6.112,17.513h-12.687l33.713-84.182h3.008l31.302,84.182H-79.551z
			 M-100.316-72.907l-12.856,36.555h24.667L-100.316-72.907z"/>
		<path fill="#FFFFFF" d="M-12.16-10.503l-22.164-35.656c-2.537,0-6.534-0.211-12.015-0.581v36.226h-11.333v-83.028
			c0.41,0,3.354-0.131,8.801-0.432c5.465-0.268,9.446-0.432,11.936-0.432c19.952,0,29.931,7.931,29.931,23.801
			c0,5.22-1.608,9.922-4.821,14.067c-3.201,4.185-7.033,6.778-11.457,7.796l24.08,38.204L-12.16-10.503L-12.16-10.503L-12.16-10.503
			z M-46.338-83.342v26.993c2.722,0.387,5.367,0.562,7.937,0.562c6.812,0,11.753-1.087,14.829-3.297
			c3.106-2.19,4.658-6.102,4.658-11.713c0-4.664-1.665-7.989-4.987-10.031c-3.319-2.047-8.557-3.07-15.745-3.07
			C-40.783-83.898-43.024-83.728-46.338-83.342z"/>
		<path fill="#FFFFFF" d="M3.579-27.095H13.5c0.921,5.003,3.912,7.534,9.013,7.534c5.078,0,8.621-1.098,10.696-3.257
			c2.057-2.195,3.081-8.263,3.081-18.22v-52.493h11.361v52.028c0,11.354-1.865,19.531-5.504,24.563
			c-3.662,5.048-10.189,7.568-19.561,7.568c-5.39,0-9.842-1.586-13.287-4.822C5.831-17.407,3.92-21.716,3.579-27.095z"/>
		<path fill="#FFFFFF" d="M75.991-83.342v23.08h27.407v9.633H75.991v29.925h37.596v10.201H64.642v-83.05h49.604v10.2H75.991V-83.342
			z"/>
		<path fill="#FFFFFF" d="M157.086-83.342v72.839h-11.339v-72.839h-26.406v-10.189h65.355v10.202h-27.623v-0.013H157.086z"/>
		<path fill="#FFFFFF" d="M230.105-10.503l-5.778-17.513h-30.886l-6.096,17.513h-12.692l33.731-84.182h3.035l31.263,84.182H230.105z
			 M209.373-72.907l-12.884,36.555h24.643L209.373-72.907z"/>
		<path fill="#FFFFFF" d="M-150.285,129.919l-42.914-60.683v59.548h-10.757v-83.02h4.52l41.771,57.408V45.765h10.746v84.154
			H-150.285z"/>
		<path fill="#FFFFFF" d="M-82.707,128.793l-5.743-17.479h-30.857l-6.135,17.479h-12.708l33.724-84.143h3.019l31.291,84.143H-82.707
			L-82.707,128.793z M-103.449,66.394l-12.868,36.552h24.666L-103.449,66.394z"/>
		<path fill="#FFFFFF" d="M-15.305,128.793L-37.48,93.142c-2.525,0-6.533-0.183-12.003-0.545v36.188h-11.343v-83.02
			c0.421,0,3.365-0.171,8.813-0.419c5.475-0.262,9.444-0.423,11.934-0.423c19.953,0,29.909,7.95,29.909,23.77
			c0,5.196-1.585,9.915-4.822,14.1c-3.212,4.208-7.033,6.756-11.445,7.803l24.092,38.189h-12.959V128.793z M-49.495,55.966v26.998
			c2.747,0.329,5.356,0.545,7.927,0.545c6.799,0,11.763-1.103,14.85-3.274c3.095-2.217,4.646-6.084,4.646-11.746
			c0-4.662-1.655-8.007-4.987-10.054c-3.319-2.035-8.557-3.035-15.755-3.035C-43.928,55.409-46.179,55.612-49.495,55.966z"/>
		<path fill="#FFFFFF" d="M53.327,128.793l-5.698-17.479h-30.91l-6.118,17.479h-12.68L31.656,44.65h3.007l31.297,84.143H53.327
			L53.327,128.793z M32.59,66.394L19.71,102.945h24.677L32.59,66.394z"/>
		<path fill="#FFFFFF" d="M128.337,129.919L85.406,69.236v59.548H74.625v-83.02h4.571l41.714,57.408V45.765h10.793v84.154H128.337z"
			/>
		<path fill="#FFFFFF" d="M142.994,112.214h9.918c0.932,4.992,3.933,7.518,9.029,7.518c5.073,0,8.62-1.091,10.677-3.266
			c2.06-2.173,3.106-8.234,3.106-18.239V45.743h11.313v52.062c0,11.349-1.842,19.536-5.491,24.562
			c-3.663,5.05-10.189,7.573-19.584,7.573c-5.389,0-9.813-1.637-13.27-4.799C145.224,121.891,143.336,117.581,142.994,112.214z"/>
		<path fill="#FFFFFF" d="M251.2,128.793l-5.731-17.479h-30.874l-6.13,17.479h-12.691l33.742-84.143h2.979l31.295,84.143H251.2
			L251.2,128.793z M230.469,66.394l-12.861,36.552h24.666L230.469,66.394z"/>
	</g>
</g>
</svg>
