<?xml version="1.0" encoding="utf-8"?>
<!-- Generator: Adobe Illustrator 16.0.0, SVG Export Plug-In . SVG Version: 6.00 Build 0)  -->
<!DOCTYPE svg PUBLIC "-//W3C//DTD SVG 1.1//EN" "http://www.w3.org/Graphics/SVG/1.1/DTD/svg11.dtd">
<svg version="1.1" xmlns="http://www.w3.org/2000/svg" xmlns:xlink="http://www.w3.org/1999/xlink" x="0px" y="0px"
	 width="706.667px" height="412.223px" viewBox="-55 190.266 706.667 412.223" enable-background="new -55 190.266 706.667 412.223"
	 xml:space="preserve">
<g id="Camada_2">
	<path fill="#FFFFFF" d="M651.668,190.266H-55v412.223h706.667"/>
</g>
<g id="layout">
	<path id="visa_x5F_1" fill="#1E82BE" d="M220.673,464.652h38.25l23.731-136.904h-38.047L220.673,464.652z M397.019,331.081
		c-7.467-2.759-19.235-5.71-34.141-5.71c-37.651,0-64.142,18.642-64.335,45.132c-0.197,19.617,18.831,30.591,33.345,37.257
		c14.904,6.689,19.814,10.979,19.814,16.877c-0.202,9.213-11.972,13.332-22.757,13.332c-15.3,0-23.341-1.953-35.896-7.047
		l-4.906-2.166l-5.489,30.591c9.025,3.738,25.497,7.071,42.567,7.259c40.016,0,66.101-18.444,66.294-46.682
		c0.202-15.686-10.004-27.469-31.971-37.275c-13.341-6.266-21.377-10.573-21.377-16.858c0-5.687,6.858-11.76,21.772-11.76
		c12.551-0.212,21.571,2.335,28.633,5.094l3.338,1.572L397.019,331.081z M447.819,416.018l15.29-38.274
		c-0.386,0.405,2.942-7.833,4.91-12.946l2.557,11.779l8.817,39.441H447.819z M494.896,327.941h-29.424
		c-9.222,0-16.081,2.335-20.007,11.378l-56.695,125.333h40.016c0,0,6.676-16.872,8.045-20.592h48.843
		c1.177,4.905,4.708,20.592,4.708,20.592h35.308L494.896,327.941z M188.892,327.941l-37.459,93.174l-3.926-18.85
		c-6.864-21.957-28.632-45.707-52.759-57.467l34.121,119.642h40.218l60.023-136.5H188.892L188.892,327.941z"/>
	<path id="visa_x5F_2" fill="#FAC814" d="M116.906,327.748H55.311l-0.391,2.933c47.873,11.167,79.447,38.636,92.586,71.585
		l-13.342-62.946C131.815,330.681,125.145,328.129,116.906,327.748z"/>
	<rect x="-55" y="137.266" fill="none" width="706.667" height="530"/>
</g>
</svg>
